<mxfile host="app.diagrams.net" modified="2021-09-17T23:23:20.111Z" agent="5.0 (Windows NT 10.0; Win64; x64) AppleWebKit/537.36 (KHTML, like Gecko) Chrome/93.0.4577.82 Safari/537.36" etag="nZMdqpo6XQactsox7kag" version="15.2.9" type="github">
  <diagram id="R2lEEEUBdFMjLlhIrx00" name="Page-1">
    <mxGraphModel dx="1278" dy="547" grid="1" gridSize="10" guides="1" tooltips="1" connect="1" arrows="1" fold="1" page="1" pageScale="1" pageWidth="850" pageHeight="1100" math="0" shadow="0" extFonts="Permanent Marker^https://fonts.googleapis.com/css?family=Permanent+Marker">
      <root>
        <mxCell id="0" />
        <mxCell id="1" parent="0" />
        <mxCell id="cfMbOBz0PLp4tTxiQXyj-19" value="Student" style="whiteSpace=wrap;html=1;align=center;fontColor=default;" vertex="1" parent="1">
          <mxGeometry x="110" y="260" width="100" height="40" as="geometry" />
        </mxCell>
        <mxCell id="cfMbOBz0PLp4tTxiQXyj-21" style="rounded=0;orthogonalLoop=1;jettySize=auto;html=1;exitX=1;exitY=1;exitDx=0;exitDy=0;entryX=0;entryY=0;entryDx=0;entryDy=0;fontColor=default;endArrow=none;endFill=0;" edge="1" parent="1" source="cfMbOBz0PLp4tTxiQXyj-20" target="cfMbOBz0PLp4tTxiQXyj-19">
          <mxGeometry relative="1" as="geometry" />
        </mxCell>
        <mxCell id="cfMbOBz0PLp4tTxiQXyj-20" value="&lt;u&gt;sid&lt;/u&gt;" style="ellipse;whiteSpace=wrap;html=1;align=center;fontColor=default;" vertex="1" parent="1">
          <mxGeometry x="40" y="190" width="60" height="30" as="geometry" />
        </mxCell>
        <mxCell id="cfMbOBz0PLp4tTxiQXyj-25" style="edgeStyle=none;rounded=0;orthogonalLoop=1;jettySize=auto;html=1;exitX=0.5;exitY=1;exitDx=0;exitDy=0;entryX=0.5;entryY=0;entryDx=0;entryDy=0;fontColor=default;endArrow=none;endFill=0;" edge="1" parent="1" source="cfMbOBz0PLp4tTxiQXyj-22" target="cfMbOBz0PLp4tTxiQXyj-19">
          <mxGeometry relative="1" as="geometry" />
        </mxCell>
        <mxCell id="cfMbOBz0PLp4tTxiQXyj-22" value="Name" style="ellipse;whiteSpace=wrap;html=1;align=center;dashed=0;fontColor=default;" vertex="1" parent="1">
          <mxGeometry x="125" y="180" width="70" height="30" as="geometry" />
        </mxCell>
        <mxCell id="cfMbOBz0PLp4tTxiQXyj-29" style="edgeStyle=none;rounded=0;orthogonalLoop=1;jettySize=auto;html=1;exitX=0.5;exitY=1;exitDx=0;exitDy=0;entryX=0;entryY=0;entryDx=0;entryDy=0;fontColor=default;endArrow=none;endFill=0;" edge="1" parent="1" source="cfMbOBz0PLp4tTxiQXyj-27" target="cfMbOBz0PLp4tTxiQXyj-22">
          <mxGeometry relative="1" as="geometry" />
        </mxCell>
        <mxCell id="cfMbOBz0PLp4tTxiQXyj-27" value="First Name" style="ellipse;whiteSpace=wrap;html=1;align=center;fontColor=default;dashed=1;" vertex="1" parent="1">
          <mxGeometry x="60" y="120" width="100" height="40" as="geometry" />
        </mxCell>
        <mxCell id="cfMbOBz0PLp4tTxiQXyj-30" style="edgeStyle=none;rounded=0;orthogonalLoop=1;jettySize=auto;html=1;exitX=0.5;exitY=1;exitDx=0;exitDy=0;entryX=1;entryY=0;entryDx=0;entryDy=0;fontColor=default;endArrow=none;endFill=0;" edge="1" parent="1" source="cfMbOBz0PLp4tTxiQXyj-28" target="cfMbOBz0PLp4tTxiQXyj-22">
          <mxGeometry relative="1" as="geometry" />
        </mxCell>
        <mxCell id="cfMbOBz0PLp4tTxiQXyj-28" value="Last Name" style="ellipse;whiteSpace=wrap;html=1;align=center;fontColor=default;dashed=1;" vertex="1" parent="1">
          <mxGeometry x="170" y="120" width="100" height="40" as="geometry" />
        </mxCell>
        <mxCell id="cfMbOBz0PLp4tTxiQXyj-32" style="edgeStyle=none;rounded=0;orthogonalLoop=1;jettySize=auto;html=1;exitX=1;exitY=0.5;exitDx=0;exitDy=0;entryX=0;entryY=0.5;entryDx=0;entryDy=0;fontColor=default;endArrow=none;endFill=0;" edge="1" parent="1" source="cfMbOBz0PLp4tTxiQXyj-31" target="cfMbOBz0PLp4tTxiQXyj-19">
          <mxGeometry relative="1" as="geometry" />
        </mxCell>
        <mxCell id="cfMbOBz0PLp4tTxiQXyj-31" value="status" style="ellipse;whiteSpace=wrap;html=1;align=center;fontColor=default;" vertex="1" parent="1">
          <mxGeometry x="10" y="265" width="60" height="30" as="geometry" />
        </mxCell>
        <mxCell id="cfMbOBz0PLp4tTxiQXyj-34" style="edgeStyle=none;rounded=0;orthogonalLoop=1;jettySize=auto;html=1;exitX=0.5;exitY=0;exitDx=0;exitDy=0;fontColor=default;endArrow=none;endFill=0;" edge="1" parent="1" source="cfMbOBz0PLp4tTxiQXyj-42" target="cfMbOBz0PLp4tTxiQXyj-19">
          <mxGeometry relative="1" as="geometry">
            <mxPoint x="90" y="340" as="sourcePoint" />
          </mxGeometry>
        </mxCell>
        <mxCell id="cfMbOBz0PLp4tTxiQXyj-47" style="edgeStyle=none;rounded=0;orthogonalLoop=1;jettySize=auto;html=1;exitX=0.5;exitY=0;exitDx=0;exitDy=0;entryX=0.5;entryY=1;entryDx=0;entryDy=0;fontColor=default;endArrow=none;endFill=0;" edge="1" parent="1" source="cfMbOBz0PLp4tTxiQXyj-35" target="cfMbOBz0PLp4tTxiQXyj-46">
          <mxGeometry relative="1" as="geometry" />
        </mxCell>
        <mxCell id="cfMbOBz0PLp4tTxiQXyj-51" style="edgeStyle=none;rounded=0;orthogonalLoop=1;jettySize=auto;html=1;exitX=1;exitY=0;exitDx=0;exitDy=0;entryX=0;entryY=1;entryDx=0;entryDy=0;fontColor=default;endArrow=none;endFill=0;" edge="1" parent="1" source="cfMbOBz0PLp4tTxiQXyj-35" target="cfMbOBz0PLp4tTxiQXyj-49">
          <mxGeometry relative="1" as="geometry" />
        </mxCell>
        <mxCell id="cfMbOBz0PLp4tTxiQXyj-52" style="edgeStyle=none;rounded=0;orthogonalLoop=1;jettySize=auto;html=1;exitX=1;exitY=0.5;exitDx=0;exitDy=0;entryX=0;entryY=0.5;entryDx=0;entryDy=0;fontColor=default;endArrow=none;endFill=0;" edge="1" parent="1" source="cfMbOBz0PLp4tTxiQXyj-35" target="cfMbOBz0PLp4tTxiQXyj-50">
          <mxGeometry relative="1" as="geometry" />
        </mxCell>
        <mxCell id="cfMbOBz0PLp4tTxiQXyj-35" value="Courses" style="whiteSpace=wrap;html=1;align=center;fontColor=default;" vertex="1" parent="1">
          <mxGeometry x="520" y="260" width="100" height="40" as="geometry" />
        </mxCell>
        <mxCell id="cfMbOBz0PLp4tTxiQXyj-36" value="Takes" style="shape=rhombus;perimeter=rhombusPerimeter;whiteSpace=wrap;html=1;align=center;fontColor=default;" vertex="1" parent="1">
          <mxGeometry x="305" y="250" width="120" height="60" as="geometry" />
        </mxCell>
        <mxCell id="cfMbOBz0PLp4tTxiQXyj-39" value="" style="endArrow=none;html=1;rounded=0;fontColor=default;exitX=1;exitY=0.5;exitDx=0;exitDy=0;entryX=0;entryY=0.5;entryDx=0;entryDy=0;" edge="1" parent="1" source="cfMbOBz0PLp4tTxiQXyj-19" target="cfMbOBz0PLp4tTxiQXyj-36">
          <mxGeometry relative="1" as="geometry">
            <mxPoint x="220" y="279.5" as="sourcePoint" />
            <mxPoint x="270" y="280" as="targetPoint" />
          </mxGeometry>
        </mxCell>
        <mxCell id="cfMbOBz0PLp4tTxiQXyj-40" value="1" style="resizable=0;html=1;align=left;verticalAlign=bottom;" connectable="0" vertex="1" parent="cfMbOBz0PLp4tTxiQXyj-39">
          <mxGeometry x="-1" relative="1" as="geometry" />
        </mxCell>
        <mxCell id="cfMbOBz0PLp4tTxiQXyj-41" value="6" style="resizable=0;html=1;align=right;verticalAlign=bottom;" connectable="0" vertex="1" parent="cfMbOBz0PLp4tTxiQXyj-39">
          <mxGeometry x="1" relative="1" as="geometry" />
        </mxCell>
        <mxCell id="cfMbOBz0PLp4tTxiQXyj-42" value="&lt;span style=&quot;border-bottom: 1px dotted&quot;&gt;email&lt;br&gt;&lt;/span&gt;" style="ellipse;whiteSpace=wrap;html=1;align=center;fontColor=default;" vertex="1" parent="1">
          <mxGeometry x="30" y="350" width="70" height="30" as="geometry" />
        </mxCell>
        <mxCell id="cfMbOBz0PLp4tTxiQXyj-43" value="" style="endArrow=none;html=1;rounded=0;fontColor=default;exitX=1;exitY=0.5;exitDx=0;exitDy=0;entryX=0;entryY=0.5;entryDx=0;entryDy=0;" edge="1" parent="1" source="cfMbOBz0PLp4tTxiQXyj-36" target="cfMbOBz0PLp4tTxiQXyj-35">
          <mxGeometry relative="1" as="geometry">
            <mxPoint x="420" y="250" as="sourcePoint" />
            <mxPoint x="580" y="250" as="targetPoint" />
          </mxGeometry>
        </mxCell>
        <mxCell id="cfMbOBz0PLp4tTxiQXyj-44" value="5" style="resizable=0;html=1;align=left;verticalAlign=bottom;" connectable="0" vertex="1" parent="cfMbOBz0PLp4tTxiQXyj-43">
          <mxGeometry x="-1" relative="1" as="geometry" />
        </mxCell>
        <mxCell id="cfMbOBz0PLp4tTxiQXyj-45" value="N" style="resizable=0;html=1;align=right;verticalAlign=bottom;" connectable="0" vertex="1" parent="cfMbOBz0PLp4tTxiQXyj-43">
          <mxGeometry x="1" relative="1" as="geometry" />
        </mxCell>
        <mxCell id="cfMbOBz0PLp4tTxiQXyj-46" value="cid" style="ellipse;whiteSpace=wrap;html=1;align=center;fontStyle=4;fontColor=default;" vertex="1" parent="1">
          <mxGeometry x="530" y="150" width="100" height="40" as="geometry" />
        </mxCell>
        <mxCell id="cfMbOBz0PLp4tTxiQXyj-49" value="title" style="ellipse;whiteSpace=wrap;html=1;align=center;fontColor=default;" vertex="1" parent="1">
          <mxGeometry x="640" y="185" width="100" height="40" as="geometry" />
        </mxCell>
        <mxCell id="cfMbOBz0PLp4tTxiQXyj-50" value="credits" style="ellipse;whiteSpace=wrap;html=1;align=center;fontColor=default;" vertex="1" parent="1">
          <mxGeometry x="670" y="260" width="100" height="40" as="geometry" />
        </mxCell>
        <mxCell id="cfMbOBz0PLp4tTxiQXyj-55" style="edgeStyle=none;rounded=0;orthogonalLoop=1;jettySize=auto;html=1;exitX=0.5;exitY=1;exitDx=0;exitDy=0;entryX=0;entryY=0;entryDx=0;entryDy=0;fontColor=default;endArrow=none;endFill=0;" edge="1" parent="1" source="cfMbOBz0PLp4tTxiQXyj-53" target="cfMbOBz0PLp4tTxiQXyj-46">
          <mxGeometry relative="1" as="geometry" />
        </mxCell>
        <mxCell id="cfMbOBz0PLp4tTxiQXyj-53" value="dept_code" style="ellipse;whiteSpace=wrap;html=1;align=center;dashed=1;fontColor=default;" vertex="1" parent="1">
          <mxGeometry x="470" y="70" width="100" height="40" as="geometry" />
        </mxCell>
        <mxCell id="cfMbOBz0PLp4tTxiQXyj-57" style="edgeStyle=none;rounded=0;orthogonalLoop=1;jettySize=auto;html=1;exitX=0.5;exitY=1;exitDx=0;exitDy=0;entryX=1;entryY=0;entryDx=0;entryDy=0;fontColor=default;endArrow=none;endFill=0;" edge="1" parent="1" source="cfMbOBz0PLp4tTxiQXyj-56" target="cfMbOBz0PLp4tTxiQXyj-46">
          <mxGeometry relative="1" as="geometry" />
        </mxCell>
        <mxCell id="cfMbOBz0PLp4tTxiQXyj-56" value="course#" style="ellipse;whiteSpace=wrap;html=1;align=center;dashed=1;fontColor=default;" vertex="1" parent="1">
          <mxGeometry x="610" y="70" width="100" height="40" as="geometry" />
        </mxCell>
        <mxCell id="cfMbOBz0PLp4tTxiQXyj-58" value="Class" style="rounded=1;arcSize=10;whiteSpace=wrap;html=1;align=center;fontColor=default;" vertex="1" parent="1">
          <mxGeometry x="520" y="360" width="100" height="40" as="geometry" />
        </mxCell>
        <mxCell id="cfMbOBz0PLp4tTxiQXyj-59" value="" style="shape=flexArrow;endArrow=classic;html=1;fontColor=default;entryX=0.5;entryY=1;entryDx=0;entryDy=0;exitX=0.5;exitY=0;exitDx=0;exitDy=0;" edge="1" parent="1" source="cfMbOBz0PLp4tTxiQXyj-58" target="cfMbOBz0PLp4tTxiQXyj-35">
          <mxGeometry width="50" height="50" relative="1" as="geometry">
            <mxPoint x="560" y="350" as="sourcePoint" />
            <mxPoint x="610" y="300" as="targetPoint" />
          </mxGeometry>
        </mxCell>
      </root>
    </mxGraphModel>
  </diagram>
</mxfile>
